<?xml version="1.0" standalone="no"?>
<!DOCTYPE svg PUBLIC "-//W3C//DTD SVG 20010904//EN"
 "http://www.w3.org/TR/2001/REC-SVG-20010904/DTD/svg10.dtd">
<svg version="1.0" xmlns="http://www.w3.org/2000/svg"
 width="1690.000000pt" height="814.000000pt" viewBox="0 0 1690.000000 814.000000"
 preserveAspectRatio="xMidYMid meet">

<g transform="translate(0.000000,814.000000) scale(0.100000,-0.100000)"
fill="#000000" stroke="none">
<path d="M710 6310 l0 -380 705 0 705 0 0 -1895 0 -1895 410 0 410 0 0 1895 0
1895 710 0 710 0 0 380 0 380 -1825 0 -1825 0 0 -380z"/>
<path d="M15310 6051 l0 -640 -56 34 c-109 66 -241 97 -485 116 -241 18 -446
-2 -621 -61 -451 -151 -797 -554 -932 -1085 -98 -389 -94 -899 10 -1285 119
-438 381 -781 717 -935 185 -85 358 -118 612 -119 341 0 564 55 708 175 l47
40 0 -75 0 -76 395 0 395 0 0 2275 0 2275 -395 0 -395 0 0 -639z m-445 -1191
c139 -38 273 -113 385 -216 l60 -56 0 -695 0 -695 -32 -42 c-211 -274 -436
-406 -687 -406 -161 0 -268 45 -381 159 -168 169 -237 397 -247 808 -6 253 6
416 41 575 70 309 238 519 467 583 79 22 288 14 394 -15z"/>
<path d="M5961 5560 c-199 -20 -380 -88 -459 -175 l-42 -45 0 80 0 80 -400 0
-400 0 0 -1680 0 -1680 400 0 400 0 0 1143 0 1144 31 44 c51 70 170 181 240
222 171 100 376 113 677 41 57 -13 105 -24 108 -24 2 0 4 182 4 405 0 316 -3
407 -12 410 -7 2 -62 11 -122 20 -141 20 -306 26 -425 15z"/>
<path d="M7865 5559 c-696 -66 -1214 -543 -1354 -1249 -34 -173 -43 -275 -43
-485 -1 -451 89 -789 291 -1095 77 -117 270 -309 390 -389 237 -157 482 -236
815 -262 314 -25 634 29 895 152 332 156 525 376 641 727 33 103 80 304 80
348 0 12 -59 14 -414 14 l-413 0 -6 -74 c-14 -156 -85 -296 -187 -367 -215
-150 -559 -173 -806 -54 -249 120 -419 376 -459 693 l-7 52 1166 0 1166 0 0
218 c0 494 -87 840 -287 1141 -74 111 -240 282 -350 361 -298 212 -699 308
-1118 269z m410 -703 c139 -48 256 -133 351 -258 68 -88 144 -264 144 -332 0
-14 -76 -16 -729 -16 l-729 0 13 58 c34 143 95 253 198 360 105 108 200 165
339 202 111 30 304 23 413 -14z"/>
<path d="M11420 5560 c-258 -25 -446 -95 -579 -215 l-41 -37 0 96 0 96 -400 0
-400 0 0 -1680 0 -1680 400 0 400 0 0 1160 0 1159 103 103 c160 162 335 267
495 299 91 17 262 7 334 -20 119 -46 178 -116 221 -268 l22 -78 3 -1177 3
-1178 399 0 400 0 0 1123 c0 680 -4 1165 -10 1232 -58 624 -342 961 -884 1050
-115 19 -346 26 -466 15z"/>
</g>
</svg>
