<?xml version="1.0" standalone="no"?>
<!DOCTYPE svg PUBLIC "-//W3C//DTD SVG 20010904//EN"
 "http://www.w3.org/TR/2001/REC-SVG-20010904/DTD/svg10.dtd">
<svg version="1.0" xmlns="http://www.w3.org/2000/svg"
 width="1147.000000pt" height="814.000000pt" viewBox="0 0 1147.000000 814.000000"
 preserveAspectRatio="xMidYMid meet">

<g transform="translate(0.000000,814.000000) scale(0.100000,-0.100000)"
fill="#000000" stroke="none">
<path d="M798 7330 c-7 -11 -18 -20 -25 -20 -7 0 -15 -10 -18 -22 -3 -13 -4
-1309 -3 -2881 3 -2709 4 -2859 21 -2871 9 -7 17 -21 17 -30 0 -21 46 -22 54
0 3 8 11 12 17 8 7 -4 9 -3 5 4 -3 6 -2 13 4 17 7 4 10 950 10 2860 0 2861 -1
2987 -33 2943 -7 -10 -10 -10 -14 0 -7 18 -21 15 -35 -8z"/>
<path d="M2449 6850 c-141 -18 -280 -68 -384 -140 -260 -179 -398 -536 -356
-923 49 -453 333 -750 763 -798 250 -28 492 34 631 161 65 59 55 67 98 -67
l23 -73 83 0 83 0 0 465 0 465 -355 0 -355 0 0 -110 0 -110 240 0 240 0 0
-142 0 -143 -68 -65 c-75 -72 -173 -126 -282 -157 -49 -13 -102 -18 -220 -18
-136 0 -163 3 -222 23 -215 74 -357 249 -403 498 -22 112 -16 375 10 469 31
114 91 222 163 294 121 120 254 171 447 171 192 0 341 -54 433 -155 51 -55 92
-141 92 -190 l0 -25 124 0 125 0 -6 38 c-8 57 -42 152 -71 202 -62 108 -204
222 -343 274 -134 50 -346 75 -490 56z"/>
<path d="M6890 6530 c0 -165 -2 -300 -5 -300 -3 0 -28 16 -55 36 -140 101
-357 119 -519 43 -191 -88 -303 -271 -333 -541 -35 -324 80 -621 281 -726 192
-100 420 -71 571 74 l60 57 0 -81 0 -82 115 0 115 0 0 910 0 910 -115 0 -115
0 0 -300z m-229 -366 c68 -20 130 -56 186 -107 l43 -40 0 -317 0 -318 -69 -74
c-45 -48 -93 -87 -133 -109 -58 -32 -69 -34 -153 -34 -103 0 -140 14 -200 73
-82 81 -125 223 -125 419 0 269 69 432 214 499 62 29 155 32 237 8z"/>
<path d="M4148 6350 c-141 -18 -233 -55 -310 -128 -55 -51 -84 -101 -104 -177
-27 -98 -30 -95 101 -95 l115 0 0 28 c1 36 31 102 61 129 49 45 117 66 229 71
129 5 204 -9 260 -49 57 -41 78 -93 86 -212 l7 -97 -89 0 c-106 0 -297 -16
-374 -31 -214 -41 -356 -130 -416 -262 -26 -55 -29 -73 -29 -162 0 -121 18
-168 95 -249 164 -173 518 -179 751 -11 27 19 51 35 54 35 3 0 5 -29 5 -65 l0
-65 116 0 116 0 -5 493 c-3 392 -7 503 -19 548 -42 161 -121 235 -295 280 -88
22 -259 31 -355 19z m442 -851 l0 -151 -53 -51 c-92 -90 -211 -137 -349 -137
-94 0 -171 26 -215 72 -45 48 -55 74 -55 137 0 131 77 214 238 255 85 21 102
23 277 25 l157 1 0 -151z"/>
<path d="M5687 6349 c-83 -20 -178 -84 -232 -158 -16 -22 -33 -41 -37 -41 -5
0 -8 41 -8 90 l0 90 -110 0 -110 0 0 -660 0 -660 110 0 110 0 0 464 0 464 40
50 c84 107 173 146 316 140 l94 -4 0 112 0 111 -46 7 c-57 7 -78 7 -127 -5z"/>
<path d="M7909 6350 c-72 -11 -158 -41 -217 -76 -71 -41 -162 -140 -205 -221
-118 -226 -112 -580 15 -790 73 -121 211 -221 358 -260 87 -22 271 -22 364 1
92 22 198 79 257 138 53 53 108 155 116 217 l6 41 -117 0 c-104 0 -116 -2
-116 -17 0 -36 -48 -119 -83 -146 -74 -57 -122 -71 -242 -71 -102 -1 -114 1
-169 28 -78 38 -140 102 -177 180 -28 60 -58 175 -59 224 l0 22 495 0 495 0 0
73 c0 330 -164 572 -434 641 -75 20 -215 27 -287 16z m263 -203 c31 -15 74
-47 96 -71 60 -65 89 -126 116 -248 l6 -28 -370 0 -370 0 0 28 c1 42 44 154
80 207 37 54 100 102 168 128 72 27 202 19 274 -16z"/>
<path d="M9456 6349 c-70 -11 -181 -69 -248 -128 -31 -28 -59 -51 -62 -51 -3
0 -6 36 -6 80 l0 80 -110 0 -110 0 0 -660 0 -660 110 0 110 0 0 474 0 473 78
75 c98 93 169 129 267 136 93 6 150 -11 196 -57 67 -67 69 -82 69 -623 l0
-478 115 0 115 0 0 483 c0 446 -2 490 -19 560 -25 95 -42 128 -97 187 -87 93
-248 136 -408 109z"/>
<path d="M1840 3031 l0 -911 303 0 c344 0 483 10 614 45 319 84 500 293 559
646 23 142 16 418 -16 539 -66 259 -221 434 -455 519 -155 56 -214 62 -627 68
l-378 5 0 -911z m839 665 c159 -41 262 -119 326 -246 52 -103 75 -203 82 -352
16 -339 -83 -585 -275 -682 -118 -60 -174 -69 -469 -73 l-273 -5 0 692 0 692
273 -5 c209 -3 287 -8 336 -21z"/>
<path d="M6710 3815 l0 -125 110 0 110 0 0 125 0 125 -110 0 -110 0 0 -125z"/>
<path d="M4189 3460 c-72 -11 -158 -41 -217 -76 -71 -41 -162 -140 -205 -221
-118 -226 -112 -580 15 -790 73 -121 211 -221 358 -260 87 -22 271 -22 364 1
92 22 198 79 257 138 53 53 108 155 116 217 l6 41 -117 0 c-104 0 -116 -2
-116 -17 0 -36 -48 -119 -83 -146 -74 -57 -122 -71 -242 -71 -102 -1 -114 1
-169 28 -78 38 -140 102 -177 180 -28 60 -58 175 -59 224 l0 22 495 0 495 0 0
73 c0 330 -164 572 -434 641 -75 20 -215 27 -287 16z m263 -203 c31 -15 74
-47 96 -71 60 -65 89 -126 116 -248 l6 -28 -370 0 -370 0 0 28 c1 42 44 154
80 207 37 54 100 102 168 128 72 27 202 19 274 -16z"/>
<path d="M5620 3460 c-124 -20 -212 -63 -285 -141 -67 -72 -89 -126 -90 -224
-1 -207 81 -285 391 -371 375 -103 421 -126 431 -216 10 -88 -32 -160 -121
-205 -43 -22 -68 -27 -157 -31 -207 -9 -323 57 -345 196 l-7 42 -114 0 -114 0
7 -47 c31 -216 172 -331 444 -364 211 -25 400 23 513 130 117 111 154 263 102
421 -39 117 -149 177 -497 269 -245 65 -291 89 -304 158 -23 124 67 202 247
211 167 8 271 -43 298 -146 l12 -42 111 0 111 0 -6 53 c-14 142 -115 244 -280
286 -88 23 -268 34 -347 21z"/>
<path d="M7790 3459 c-70 -12 -171 -59 -228 -106 -168 -138 -254 -406 -223
-694 27 -247 126 -427 280 -507 192 -100 420 -71 571 74 l60 57 0 -74 c-1
-307 -94 -435 -324 -447 -108 -6 -181 9 -235 48 -46 34 -68 70 -77 129 l-7 41
-118 0 c-118 0 -119 0 -115 -22 3 -13 8 -41 11 -62 10 -61 48 -127 103 -178
98 -92 221 -131 412 -132 256 0 417 85 504 266 68 144 69 146 73 906 l4 682
-115 0 -116 0 0 -50 c0 -27 -2 -50 -5 -50 -3 0 -28 16 -55 36 -99 71 -268 106
-400 83z m231 -185 c68 -20 130 -56 186 -107 l43 -40 0 -317 0 -318 -69 -74
c-45 -48 -93 -87 -133 -109 -58 -32 -69 -34 -153 -34 -103 0 -140 14 -200 73
-82 81 -125 223 -125 419 0 269 69 432 214 499 62 29 155 32 237 8z"/>
<path d="M9496 3459 c-70 -11 -181 -69 -248 -128 -31 -28 -59 -51 -62 -51 -3
0 -6 36 -6 80 l0 80 -110 0 -110 0 0 -660 0 -660 110 0 110 0 0 474 0 473 78
75 c98 93 169 129 267 136 93 6 150 -11 196 -57 67 -67 69 -82 69 -623 l0
-478 115 0 115 0 0 483 c0 446 -2 490 -19 560 -25 95 -42 128 -97 187 -87 93
-248 136 -408 109z"/>
<path d="M6710 2780 l0 -660 110 0 110 0 0 660 0 660 -110 0 -110 0 0 -660z"/>
</g>
</svg>
